PathFileType	4	(X/Y/Z)	\\147.46.242.158\로컬 디스크 (e)\MOCAP Data\Iguana Capture\iguana\Project 2\Capture day 7\Session 2\Take13.trc
DataRate	CameraRate	NumFrames	NumMarkers	Units	OrigDataRate	OrigDataStartFrame	OrigNumFrames
120.0	120.0	13	23	mm	120.0	42	7542
Frame#	Time	ana:head1			ana:head2			ana:bone1			ana:bone2			ana:bone3			ana:tail1			ana:tail2			ana:tail3			ana:tail4			ana:Rforefoot1			ana:Rforefoot2			ana:Rforefoot3			ana:Lforefoot1			ana:Lforefoot2			ana:Lforefoot3			ana:RhindLeg1			ana:RhindLeg2			ana:RhindLeg3			ana:RhindLeg4			ana:LhindLeg1			ana:LhindLeg2			ana:LhindLeg3			ana:LhindLeg4			
		X1	Y1	Z1	X2	Y2	Z2	X3	Y3	Z3	X4	Y4	Z4	X5	Y5	Z5	X6	Y6	Z6	X7	Y7	Z7	X8	Y8	Z8	X9	Y9	Z9	X10	Y10	Z10	X11	Y11	Z11	X12	Y12	Z12	X13	Y13	Z13	X14	Y14	Z14	X15	Y15	Z15	X16	Y16	Z16	X17	Y17	Z17	X18	Y18	Z18	X19	Y19	Z19	X20	Y20	Z20	X21	Y21	Z21	X22	Y22	Z22	X23	Y23	Z23	

4461	37.167	416.04077	286.49033	48.18551	417.70105	295.48618	47.85389	412.12799	319.79108	42.02210	392.06900	337.84085	35.93570	360.37369	347.96622	24.98116	332.34106	356.65735	16.09140	305.24359	378.60193	8.12218	298.50235	419.45450	6.01875	308.45810	460.37320	4.33682	406.71884	307.21133	22.61524	398.07462	315.50537	10.03709	413.02441	318.03418	0.38116	425.23956	321.45441	28.96153	436.37381	329.43060	27.76756	448.69934	322.81168	14.42890	358.73050	338.25616	19.81920	363.72256	318.35233	19.89532	354.59024	312.74777	1.69526	363.29376	307.79443	2.59058	363.38837	356.12167	18.66467	372.77698	371.64548	18.34243	362.79248	382.86066	2.36286	373.64215	386.98096	2.58663	
4462	37.175	415.17706	285.37198	47.88288	416.91199	294.42285	47.80700	411.80597	318.64499	41.97456	392.19400	337.33524	36.11799	360.70535	347.90903	25.13216	332.62341	356.68289	16.22163	305.44022	378.55469	8.23144	298.50690	419.27612	6.03826	308.29620	460.18683	4.31224	406.40921	306.61057	22.42492	397.98428	315.39276	10.00447	412.94043	317.86951	0.46864	424.99722	319.98630	28.97385	436.89722	327.14627	27.90306	448.43365	318.35010	15.31892	358.85022	338.27460	19.84838	363.74820	318.22525	19.89591	354.42722	313.04819	1.53379	363.18909	308.00824	2.51988	363.73340	356.11142	18.86145	372.92676	371.66757	18.32843	362.79758	382.85110	2.37100	373.66077	386.94556	2.56390	
4463	37.183	414.44052	284.25253	47.68915	415.87015	293.57794	47.96568	411.50235	317.44672	41.92178	392.29462	336.79910	36.31067	361.05670	347.82590	25.27589	332.92032	356.72699	16.34782	305.65817	378.51651	8.33982	298.53448	419.07437	6.05298	308.15002	460.00952	4.28156	405.99500	305.85089	22.24152	397.98615	315.31671	9.94835	412.86377	317.63406	0.56963	424.70398	318.46588	28.99242	437.38007	324.78375	27.95734	447.80634	313.94943	16.23747	359.01410	338.33655	19.92900	363.78638	318.10718	19.91876	354.23627	313.23093	1.39096	363.24255	308.09729	2.49360	364.08643	356.07300	19.01679	373.07733	371.68436	18.29744	362.80136	382.84500	2.38470	373.68762	386.89114	2.53611	
4464	37.192	413.80362	283.22476	47.66295	414.72055	292.92575	48.21346	411.22092	316.22897	41.89336	392.39841	336.24002	36.51822	361.42529	347.71292	25.43320	333.24426	356.77505	16.48123	305.90204	378.47531	8.44004	298.55557	418.89233	6.07586	308.01526	459.84384	4.24770	405.54892	304.95108	22.16812	398.07730	315.26874	9.87028	412.78613	317.31454	0.67882	424.45981	316.90018	29.02397	437.75388	322.29642	27.96418	446.85806	309.70853	17.12595	359.33691	338.29337	20.09036	363.82654	317.98456	19.93382	353.89752	313.43298	1.26436	363.44540	308.02820	2.50758	364.48322	356.00467	19.19686	373.21002	371.71082	18.26159	362.81604	382.82910	2.40413	373.71814	386.83734	2.51162	
4465	37.200	413.25534	282.19333	47.75932	413.69702	292.21854	48.40313	410.90921	315.06598	41.89615	392.50067	335.65564	36.72709	361.80157	347.59589	25.61160	333.60132	356.82239	16.63644	306.17444	378.39975	8.52893	298.59201	418.68573	6.08150	307.89532	459.69000	4.22174	405.09674	303.95483	22.19602	398.24896	315.26419	9.78348	412.70578	316.95422	0.78952	424.32120	315.29834	29.06802	438.04712	319.64713	27.96121	445.63858	305.70316	17.87319	359.75110	338.14175	20.27420	363.88593	317.83109	19.94209	353.50571	313.62329	1.14142	363.64890	307.91113	2.55266	364.92517	355.91049	19.41391	373.33563	371.73813	18.23720	362.84583	382.80353	2.43138	373.76505	386.75711	2.47928	
4466	37.208	412.76944	281.16940	47.90826	412.90649	291.38043	48.46592	410.59830	313.99353	41.90545	392.61652	335.04132	36.92030	362.18365	347.45538	25.82017	333.99350	356.87125	16.80447	306.47543	378.27948	8.60341	298.60934	418.48337	6.09736	307.78561	459.54739	4.20284	404.65024	302.86179	22.29705	398.40390	315.22150	9.72245	412.63602	316.55801	0.86522	424.30447	313.64597	29.12382	438.21945	316.87439	27.92355	444.22461	301.94992	18.40357	360.21954	337.87167	20.50253	363.95807	317.65289	19.92775	353.18625	313.80435	1.03750	363.79675	307.79498	2.56653	365.37180	355.79883	19.62183	373.46304	371.75613	18.22993	362.89746	382.75647	2.46709	373.82187	386.66718	2.44295	
4467	37.217	412.20862	280.06805	47.94415	412.31470	290.35449	48.34748	410.24695	312.94089	41.90276	392.74051	334.41522	37.10577	362.53781	347.32092	26.02880	334.43918	356.91348	17.00556	306.80051	378.13721	8.67708	298.61661	418.26932	6.11703	307.68799	459.39389	4.19261	403.72705	302.38333	22.62877	398.47021	315.10693	9.71915	412.57944	316.23779	0.94205	424.39081	312.02118	29.17943	438.26379	314.03445	27.79313	442.69751	298.46176	18.63711	360.63818	337.55066	20.68168	364.05820	317.44803	19.93157	352.99387	313.90643	0.97146	363.83813	307.48590	2.61700	365.79370	355.63834	19.79083	373.58517	371.76105	18.24714	362.97296	382.70203	2.52418	373.86288	386.62149	2.42263	
4468	37.225	411.69043	278.96530	47.92763	411.74066	289.37344	48.26094	409.90579	311.88602	41.94319	392.90314	333.76828	37.29317	362.89850	347.17130	26.25905	334.91281	356.93454	17.21397	307.13339	377.96915	8.74659	298.60767	418.05075	6.15538	307.57944	459.24393	4.18927	402.46356	302.40692	22.95925	398.40704	314.93808	9.81035	412.51865	316.03409	0.99650	424.49808	310.42758	29.19882	438.11197	311.19495	27.49045	441.12012	295.24991	18.52426	360.99927	337.24915	20.85464	364.16617	317.22760	19.94654	352.88162	313.92200	0.98516	363.90649	307.19843	2.65383	366.17322	355.47513	19.94450	373.71191	371.74530	18.28599	363.06329	382.64304	2.60337	373.88333	386.63303	2.42110	
4469	37.233	411.17593	277.89856	47.87294	411.17062	288.31396	48.13479	409.57489	310.82635	41.96765	393.09833	333.09656	37.50109	363.24753	347.00006	26.47503	335.41013	356.93149	17.43610	307.45563	377.84311	8.83431	298.59912	417.80325	6.19945	307.46750	459.05896	4.20541	401.02127	302.98108	23.29959	398.13013	314.70233	10.02894	412.47855	316.05075	1.04408	424.49600	308.90707	29.13063	437.77618	308.45349	26.97675	439.56253	292.30829	18.04324	361.27878	337.02811	21.03424	364.27505	316.98901	19.97862	352.90323	313.94626	0.97799	363.91357	306.98639	2.68213	366.54971	355.27496	20.08640	373.84579	371.70569	18.33658	363.18869	382.61874	2.71627	373.91132	386.64185	2.41729	
4470	37.242	410.60229	276.88556	47.77029	410.61249	287.25507	48.00502	409.22095	309.73621	41.99301	393.33997	332.40295	37.73699	363.61389	346.79517	26.69598	335.91092	356.89026	17.65926	307.76437	377.74948	8.93750	298.58246	417.51727	6.22136	307.33578	458.82944	4.22458	399.50500	303.89084	23.60375	397.71243	314.46469	10.33786	412.46484	316.12985	1.12084	424.40646	307.46326	29.00721	437.24039	305.84766	26.26527	438.02194	289.71136	17.18941	361.51236	336.89835	21.23400	364.37814	316.73773	20.01315	352.91080	313.97104	0.97518	363.79556	306.92575	2.74088	366.96243	355.05261	20.26711	373.99936	371.62827	18.37324	363.30313	382.61810	2.84721	373.94409	386.64713	2.40989	
4471	37.250	410.11563	275.82120	47.68376	410.04434	286.17841	47.92810	408.86554	308.60611	42.01985	393.60239	331.67752	37.99022	363.99820	346.55688	26.91905	336.40781	356.81039	17.88674	308.08121	377.61267	9.05097	298.55292	417.18610	6.20525	307.16562	458.56281	4.25571	398.12988	304.71371	23.77799	397.13309	314.23465	10.73970	412.47467	316.25360	1.22083	424.14645	306.03732	28.82589	436.57297	303.47144	25.33600	436.47141	287.46954	15.95034	361.72833	336.77713	21.43993	364.46570	316.46191	20.02868	353.04495	314.00439	0.93403	363.67499	306.96683	2.77258	367.38898	354.80847	20.44923	374.20547	371.52740	18.40012	363.41766	382.61249	2.99427	373.97879	386.64902	2.40106	
4472	37.258	409.71771	274.74231	47.62299	409.49731	285.08249	47.82045	408.53970	307.45218	42.04693	393.88898	330.92276	38.25937	364.40143	346.26660	27.14887	336.88428	356.69031	18.11116	308.39587	377.44263	9.17584	298.50049	416.84665	6.17465	306.93735	458.26086	4.28419	397.08514	305.11160	23.86750	396.38138	314.00760	11.23069	412.49466	316.30072	1.33674	423.79434	304.62354	28.58561	435.80164	301.28506	24.26056	434.94870	285.49463	14.42363	362.00647	336.55984	21.65765	364.51596	316.17725	20.00261	353.22430	313.87878	0.90728	363.55551	307.07898	2.78444	367.79605	354.59058	20.67385	374.40500	371.37579	18.39966	363.51132	382.61050	3.14591	374.01141	386.63925	2.39117	
4473	37.267	409.35849	273.58023	47.53646	408.98083	283.96066	47.65916	408.23019	306.25854	42.07391	394.16168	330.12195	38.52492	364.80606	345.94336	27.38862	337.32184	356.52936	18.32246	308.71579	377.18790	9.28698	298.44116	416.46906	6.11630	306.64386	457.91678	4.30576	396.32993	304.99063	23.86035	395.48438	313.77475	11.79782	412.38370	316.41162	1.34218	423.41806	303.20419	28.29738	434.98492	299.24307	23.13885	433.43848	283.85434	12.67661	362.31796	336.23087	21.84598	364.55112	315.87527	19.95257	353.39355	313.63797	0.90299	363.47650	307.12259	2.81911	368.17593	354.33475	20.88208	374.57590	371.15610	18.34665	363.61221	382.65253	3.38815	374.04761	386.64471	2.38705	
